<svg xmlns="http://www.w3.org/2000/svg" viewBox="0 0 100 100" width="100" height="100"><path fill="#000000" fill-rule="nonzero" d="M16.00 94.00 C16.00 94.00 16.17 80.33 17.00 74.00 C17.83 67.67 19.50 61.00 21.00 56.00 C22.50 51.00 25.50 47.33 26.00 44.00 C26.50 40.67 26.17 38.83 24.00 36.00 C21.83 33.17 15.83 30.17 13.00 27.00 C10.17 23.83 7.00 17.00 7.00 17.00 C7.00 17.00 16.50 24.50 20.00 27.00 C23.50 29.50 27.50 33.17 28.00 32.00 C28.50 30.83 24.33 24.50 23.00 20.00 C21.67 15.50 20.00 5.00 20.00 5.00 C20.00 5.00 27.50 12.67 31.00 16.00 C34.50 19.33 37.17 23.67 41.00 25.00 C44.83 26.33 50.17 23.33 54.00 24.00 C57.83 24.67 61.00 26.33 64.00 29.00 C67.00 31.67 69.33 36.50 72.00 40.00 C74.67 43.50 77.67 47.00 80.00 50.00 C82.33 53.00 84.83 55.33 86.00 58.00 C87.17 60.67 86.00 64.00 87.00 66.00 C88.00 68.00 92.83 69.17 92.00 70.00 C91.17 70.83 85.67 70.83 82.00 71.00 C78.33 71.17 71.50 70.00 70.00 71.00 C68.50 72.00 71.33 75.50 73.00 77.00 C74.67 78.50 77.50 79.00 80.00 80.00 C82.50 81.00 88.00 83.00 88.00 83.00 C88.00 83.00 81.67 86.50 78.00 87.00 C74.33 87.50 69.33 87.17 66.00 86.00 C62.67 84.83 59.67 80.33 58.00 80.00 C56.33 79.67 56.67 82.33 56.00 84.00 C55.33 85.67 54.67 87.33 54.00 90.00 C53.33 92.67 52.00 100.00 52.00 100.00 C52.00 100.00 48.00 93.00 46.00 92.00 C44.00 91.00 40.00 94.00 40.00 94.00 C40.00 94.00 16.00 94.00 16.00 94.00 Z M63.00 38.40 C60.46 38.40 58.40 40.46 58.40 43.00 C58.40 45.54 60.46 47.60 63.00 47.60 C65.54 47.60 67.60 45.54 67.60 43.00 C67.60 40.46 65.54 38.40 63.00 38.40 Z"/></svg>