<svg xmlns="http://www.w3.org/2000/svg" viewBox="0 0 100 100" width="100" height="100"><path fill="#000000" fill-rule="nonzero" d="M16.00 94.00 C16.00 94.00 16.17 80.33 17.00 74.00 C17.83 67.67 19.50 61.00 21.00 56.00 C22.50 51.00 24.50 47.67 26.00 44.00 C27.50 40.33 27.33 37.00 30.00 34.00 C32.67 31.00 38.00 27.50 42.00 26.00 C46.00 24.50 50.33 24.50 54.00 25.00 C57.67 25.50 60.67 26.50 64.00 29.00 C67.33 31.50 70.33 36.83 74.00 40.00 C77.67 43.17 82.67 46.00 86.00 48.00 C89.33 50.00 92.33 50.33 94.00 52.00 C95.67 53.67 96.33 56.00 96.00 58.00 C95.67 60.00 92.67 62.00 92.00 64.00 C91.33 66.00 93.67 68.83 92.00 70.00 C90.33 71.17 85.67 70.83 82.00 71.00 C78.33 71.17 71.50 70.00 70.00 71.00 C68.50 72.00 71.33 75.50 73.00 77.00 C74.67 78.50 77.50 79.00 80.00 80.00 C82.50 81.00 88.00 83.00 88.00 83.00 C88.00 83.00 81.67 86.50 78.00 87.00 C74.33 87.50 69.33 87.17 66.00 86.00 C62.67 84.83 60.33 80.00 58.00 80.00 C55.67 80.00 54.33 84.00 52.00 86.00 C49.67 88.00 46.00 90.67 44.00 92.00 C42.00 93.33 40.00 94.00 40.00 94.00 C40.00 94.00 16.00 94.00 16.00 94.00 Z M62.00 36.60 C59.02 36.60 56.60 39.02 56.60 42.00 C56.60 44.98 59.02 47.40 62.00 47.40 C64.98 47.40 67.40 44.98 67.40 42.00 C67.40 39.02 64.98 36.60 62.00 36.60 Z"/></svg>