<svg xmlns="http://www.w3.org/2000/svg" viewBox="0 0 100 100" width="100" height="100"><path fill="#000000" fill-rule="nonzero" d="M16.00 94.00 C16.00 94.00 14.17 84.33 13.00 80.00 C11.83 75.67 9.33 72.00 9.00 68.00 C8.67 64.00 9.33 59.33 11.00 56.00 C12.67 52.67 16.50 50.00 19.00 48.00 C21.50 46.00 25.17 46.00 26.00 44.00 C26.83 42.00 26.17 38.83 24.00 36.00 C21.83 33.17 15.83 30.17 13.00 27.00 C10.17 23.83 7.00 17.00 7.00 17.00 C7.00 17.00 16.50 24.50 20.00 27.00 C23.50 29.50 27.50 33.17 28.00 32.00 C28.50 30.83 24.33 24.50 23.00 20.00 C21.67 15.50 20.00 5.00 20.00 5.00 C20.00 5.00 27.50 12.67 31.00 16.00 C34.50 19.33 37.17 23.67 41.00 25.00 C44.83 26.33 50.17 23.33 54.00 24.00 C57.83 24.67 60.67 26.33 64.00 29.00 C67.33 31.67 70.33 36.83 74.00 40.00 C77.67 43.17 82.67 46.00 86.00 48.00 C89.33 50.00 92.33 50.33 94.00 52.00 C95.67 53.67 96.33 56.00 96.00 58.00 C95.67 60.00 93.00 62.00 92.00 64.00 C91.00 66.00 92.00 69.00 90.00 70.00 C88.00 71.00 83.17 70.33 80.00 70.00 C76.83 69.67 72.17 67.33 71.00 68.00 C69.83 68.67 71.67 73.17 73.00 74.00 C74.33 74.83 77.00 72.83 79.00 73.00 C81.00 73.17 83.67 74.17 85.00 75.00 C86.33 75.83 87.33 77.17 87.00 78.00 C86.67 78.83 82.50 78.33 83.00 80.00 C83.50 81.67 90.00 88.00 90.00 88.00 C90.00 88.00 82.00 91.00 78.00 91.00 C74.00 91.00 69.33 89.83 66.00 88.00 C62.67 86.17 60.33 80.33 58.00 80.00 C55.67 79.67 54.33 84.00 52.00 86.00 C49.67 88.00 46.00 90.67 44.00 92.00 C42.00 93.33 40.00 94.00 40.00 94.00 C40.00 94.00 16.00 94.00 16.00 94.00 Z M63.00 38.40 C60.46 38.40 58.40 40.46 58.40 43.00 C58.40 45.54 60.46 47.60 63.00 47.60 C65.54 47.60 67.60 45.54 67.60 43.00 C67.60 40.46 65.54 38.40 63.00 38.40 Z"/></svg>